<svg width="434" height="434" viewBox="0 0 434 434" fill="none" xmlns="http://www.w3.org/2000/svg">
<g clip-path="url(#clip0_10_2)">
<circle cx="217" cy="217" r="217" fill="#FF8C22"/>
<g clip-path="url(#clip1_10_2)">
<path d="M354.625 101.833C353.311 101.698 351.987 101.698 350.673 101.833H80.7845C79.0547 101.86 77.3364 102.119 75.6758 102.604L214.958 241.308L354.625 101.833Z" fill="white"/>
<path d="M368.891 115.231L228.549 254.995C224.937 258.586 220.051 260.601 214.958 260.601C209.865 260.601 204.979 258.586 201.367 254.995L62.2778 116.292C61.8502 117.863 61.6235 119.483 61.6031 121.111V313.889C61.6031 319.002 63.6341 323.905 67.2494 327.52C70.8647 331.136 75.7681 333.167 80.8808 333.167H350.77C355.883 333.167 360.786 331.136 364.401 327.52C368.016 323.905 370.048 319.002 370.048 313.889V121.111C369.971 119.103 369.581 117.119 368.891 115.231ZM94.0861 313.889H80.6881V300.105L150.763 230.609L164.354 244.2L94.0861 313.889ZM350.577 313.889H337.083L266.815 244.2L280.406 230.609L350.481 300.105L350.577 313.889Z" fill="white"/>
</g>
</g>
<defs>
<clipPath id="clip0_10_2">
<rect width="434" height="434" fill="white"/>
</clipPath>
<clipPath id="clip1_10_2">
<rect width="347" height="347" fill="white" transform="translate(43 44)"/>
</clipPath>
</defs>
</svg>
