<svg width="434" height="434" viewBox="0 0 434 434" fill="none" xmlns="http://www.w3.org/2000/svg">
<g clip-path="url(#clip0_10_2)">
<circle cx="217" cy="217" r="217" fill="#3C00E8"/>
<rect x="105" y="117" width="238" height="198" fill="black"/>
<path d="M345.917 80.5L343.49 80.955L262.5 112.35L171.5 80.5L85.96 109.317C82.775 110.378 80.5 113.108 80.5 116.597V345.917C80.5 350.163 83.8367 353.5 88.0833 353.5L90.51 353.045L171.5 321.65L262.5 353.5L348.04 324.683C351.225 323.622 353.5 320.892 353.5 317.403V88.0833C353.5 83.8367 350.163 80.5 345.917 80.5ZM186.667 117.962L247.333 139.195V316.038L186.667 294.805V117.962ZM110.833 132.977L156.333 117.658V295.108L110.833 312.702V132.977ZM323.167 301.023L277.667 316.342V139.043L323.167 121.45V301.023Z" fill="white"/>
</g>
<defs>
<clipPath id="clip0_10_2">
<rect width="434" height="434" fill="white"/>
</clipPath>
</defs>
</svg>
