<svg width="282" height="282" viewBox="0 0 282 282" fill="none" xmlns="http://www.w3.org/2000/svg">
<g clip-path="url(#clip0_10_19)">
<path fill-rule="evenodd" clip-rule="evenodd" d="M33.2231 9.00634C36.307 5.92705 40.0102 3.53833 44.0871 1.99846C48.1641 0.458596 52.5217 -0.197247 56.8713 0.0743928C61.2208 0.346033 65.463 1.53895 69.3167 3.5741C73.1704 5.60925 76.5475 8.44016 79.2244 11.8792L110.861 52.5225C116.66 59.9778 118.704 69.6892 116.413 78.8542L106.772 117.453C106.274 119.452 106.301 121.546 106.85 123.532C107.4 125.518 108.454 127.328 109.909 128.786L153.214 172.09C154.674 173.549 156.487 174.605 158.476 175.154C160.465 175.704 162.563 175.729 164.565 175.228L203.146 165.587C207.669 164.456 212.389 164.368 216.951 165.33C221.513 166.292 225.796 168.278 229.477 171.139L270.121 202.758C284.732 214.126 286.071 235.717 272.994 248.777L254.769 267.001C241.727 280.044 222.234 285.772 204.062 279.374C157.553 263.01 115.325 236.384 80.511 201.471C45.601 166.662 18.9752 124.441 2.6085 77.9377C-3.77175 59.784 1.95637 40.2731 14.9989 27.2306L33.2231 9.00634Z" fill="white"/>
</g>
<defs>
<clipPath id="clip0_10_19">
<rect width="282" height="282" fill="white"/>
</clipPath>
</defs>
</svg>
