<svg width="434" height="434" viewBox="0 0 434 434" fill="none" xmlns="http://www.w3.org/2000/svg">
<g clip-path="url(#clip0_10_2)">
<circle cx="217" cy="217" r="217" fill="#00DF31"/>
<path d="M265.586 256.034L258.287 263.301C258.287 263.301 240.914 280.561 193.511 233.431C146.107 186.301 163.481 169.04 163.481 169.04L168.069 164.452C179.41 153.191 180.485 135.096 170.587 121.877L150.375 94.8792C138.119 78.5167 114.457 76.3511 100.421 90.3073L75.2354 115.332C68.2894 122.262 63.6373 131.214 64.1987 141.159C65.6425 166.618 77.1604 221.368 141.391 285.246C209.52 352.974 273.446 355.669 299.578 353.23C307.856 352.46 315.042 348.257 320.833 342.482L343.613 319.831C359.013 304.544 354.681 278.316 334.982 267.616L304.343 250.949C291.413 243.922 275.692 245.992 265.586 256.034Z" fill="white"/>
</g>
<defs>
<clipPath id="clip0_10_2">
<rect width="434" height="434" fill="white"/>
</clipPath>
</defs>
</svg>
