<svg width="602" height="538" viewBox="0 0 602 538" fill="none" xmlns="http://www.w3.org/2000/svg">
<rect width="602" height="538" fill="#F5F5F5"/>
<path d="M538 269C538 417.565 417.565 538 269 538C120.435 538 0 417.565 0 269C0 120.435 120.435 0 269 0C417.565 0 538 120.435 538 269Z" fill="#32009B"/>
<path d="M113 150H421V390H113V150Z" fill="black"/>
<path d="M422.917 106L420.01 106.545L323 144.15L214 106L111.54 140.517C107.725 141.788 105 145.058 105 149.237V423.917C105 429.003 108.997 433 114.083 433L116.99 432.455L214 394.85L323 433L425.46 398.483C429.275 397.212 432 393.942 432 389.763V115.083C432 109.997 428.003 106 422.917 106ZM232.167 150.872L304.833 176.305V388.128L232.167 362.695V150.872ZM141.333 168.857L195.833 150.508V363.058L141.333 384.132V168.857ZM395.667 370.143L341.167 388.492V176.123L395.667 155.05V370.143Z" fill="white"/>
</svg>
